<svg width="32" height="32" viewBox="0 0 32 32" fill="none" xmlns="http://www.w3.org/2000/svg">
<path d="M0 16C0 7.16344 7.16344 0 16 0C24.8366 0 32 7.16344 32 16C32 24.8366 24.8366 32 16 32C7.16344 32 0 24.8366 0 16Z" fill="#EAECDB"/>
<path d="M17.7933 10.8789L17.7906 10.8775L17.7586 10.8446C17.6673 10.7508 17.5954 10.6398 17.5465 10.5183C17.4977 10.3968 17.4727 10.2668 17.473 10.1357C17.4732 10.0046 17.4986 9.87474 17.5479 9.75338C17.5971 9.63221 17.6693 9.52171 17.7607 9.42836L17.7933 10.8789ZM17.7933 10.8789L20.4631 13.5841L19.852 13.9446L19.8456 13.9483L19.8394 13.9524C19.5678 14.1326 19.2976 14.4615 19.1548 14.7218L18.9976 15.0081L18.693 14.9205L18.6925 14.9203C18.3601 14.8254 18.0166 14.7774 17.6714 14.7778C17.6713 14.7778 17.6712 14.7778 17.6711 14.7778H13.5422L13.542 14.7778L17.7933 10.8789ZM18.9491 13.6199L19.1352 13.4232L18.9449 13.2306L17.1889 11.4537C17.1887 11.4535 17.1885 11.4533 17.1883 11.4531C17.0205 11.2812 16.8871 11.0767 16.7958 10.851C16.7045 10.625 16.6574 10.3826 16.6574 10.1375C16.6574 9.8925 16.7045 9.65003 16.7958 9.42408C16.8872 9.19814 17.0208 8.99337 17.1889 8.82133L17.189 8.82122C17.5279 8.47378 17.9858 8.28 18.4616 8.28C18.9374 8.28 19.3953 8.47378 19.7342 8.82122L19.7347 8.8217L25.5366 14.7407C25.5367 14.7407 25.5367 14.7408 25.5368 14.7409C25.9114 15.1248 26.209 15.5812 26.4121 16.0841C26.6153 16.587 26.72 17.1264 26.72 17.6713C26.72 18.2162 26.6153 18.7556 26.4121 19.2586C26.2089 19.7616 25.9113 20.218 25.5366 20.602L25.5364 20.6022C25.1236 21.026 24.6264 21.352 24.0795 21.5583C23.5327 21.7646 22.949 21.8463 22.3687 21.798L22.1572 21.7804L22.083 21.9793C21.8916 22.4931 21.5531 22.9339 21.1135 23.2443C20.674 23.5546 20.154 23.7201 19.6221 23.72H19.6221H11.5913H11.5912C10.8935 23.7205 10.2227 23.4369 9.72628 22.9292C9.22969 22.4213 8.9484 21.7305 8.94633 21.0079V19.2547V18.9302L8.62532 18.9777C8.09918 19.0556 7.56214 18.9847 7.07188 18.7723C6.58155 18.5599 6.15603 18.2137 5.84184 17.7701C5.5276 17.3265 5.33685 16.8027 5.29086 16.2549C5.24488 15.7071 5.34549 15.1571 5.58143 14.6644C5.81735 14.1716 6.17936 13.7553 6.62758 13.4596C7.07574 13.1639 7.59335 12.9998 8.12465 12.9842C8.65595 12.9685 9.18174 13.102 9.64545 13.3708C10.1092 13.6396 10.4937 14.0338 10.7566 14.5117L10.8995 14.7715L11.1507 14.6139C11.8711 14.162 12.6985 13.9238 13.5416 13.9248H13.542H17.6714C17.9351 13.9248 18.1957 13.9487 18.449 13.993L18.6159 14.0222L18.7192 13.888C18.7905 13.7955 18.8677 13.706 18.9491 13.6199ZM18.4625 9.13088C18.198 9.13088 17.9458 9.23867 17.7609 9.42813L19.163 9.42694C18.9782 9.23822 18.7265 9.13088 18.4625 9.13088ZM21.9277 20.867C22.465 21.0009 23.0268 20.9907 23.5591 20.8373C24.0912 20.684 24.5752 20.393 24.9648 19.9931C25.2629 19.6876 25.499 19.3252 25.66 18.9268C25.821 18.5284 25.9039 18.1015 25.904 17.6707C25.904 17.2398 25.8214 16.8129 25.6606 16.4144C25.4997 16.016 25.2638 15.6535 24.9659 15.3478L24.9653 15.3473L19.1645 9.42848L19.1644 9.42836C19.1641 9.42808 19.1638 9.42781 19.1635 9.42753L21.9277 20.867ZM10.1232 15.4893L10.2351 15.362L10.1743 15.2038C10.0245 14.8143 9.76702 14.4768 9.43221 14.2334C9.09732 13.9898 8.6998 13.8511 8.28814 13.8351C7.87648 13.819 7.46966 13.9264 7.11746 14.1434C6.76536 14.3602 6.48347 14.6769 6.30522 15.0539C6.127 15.4309 6.05974 15.8524 6.11122 16.2673C6.1627 16.6822 6.33084 17.0735 6.59606 17.3933C6.86135 17.7132 7.21247 17.9479 7.60716 18.0676C8.00191 18.1872 8.42224 18.1863 8.81651 18.065L8.98194 18.0141L9.01036 17.8434C9.15652 16.9654 9.5428 16.1491 10.1232 15.4893Z" fill="#A2B38B" stroke="#A2B38B" stroke-width="0.56"/>
<path d="M16 31C7.71573 31 1 24.2843 1 16H-1C-1 25.3888 6.61116 33 16 33V31ZM31 16C31 24.2843 24.2843 31 16 31V33C25.3888 33 33 25.3888 33 16H31ZM16 1C24.2843 1 31 7.71573 31 16H33C33 6.61116 25.3888 -1 16 -1V1ZM16 -1C6.61116 -1 -1 6.61116 -1 16H1C1 7.71573 7.71573 1 16 1V-1Z" fill="#384F08" fill-opacity="0.1"/>
</svg>
