<svg width="32" height="32" viewBox="0 0 32 32" fill="none" xmlns="http://www.w3.org/2000/svg">
<path d="M0 16C0 7.16344 7.16344 0 16 0C24.8366 0 32 7.16344 32 16C32 24.8366 24.8366 32 16 32C7.16344 32 0 24.8366 0 16Z" fill="#EAECDB"/>
<path fill-rule="evenodd" clip-rule="evenodd" d="M23.0599 10.4313C23.0169 10.3043 22.9491 10.1871 22.8603 10.0866C20.0626 6.90311 17.7625 5.83973 15.7052 6.02765C13.7299 6.20807 12.1503 7.54604 10.7992 8.69043L10.7427 8.73824L10.7414 8.73939L10.7408 8.7399L10.7407 8.73991L10.7402 8.74036L10.7387 8.74164L9.24097 10.0099C9.01914 10.1977 8.99158 10.5298 9.17943 10.7517C9.36727 10.9735 9.69938 11.0011 9.92122 10.8132L11.4183 9.54552L11.4184 9.54544L11.4284 9.5376C11.4391 9.52932 11.4576 9.51536 11.4836 9.49722C11.5358 9.46086 11.6172 9.40821 11.7248 9.35087C11.9407 9.2358 12.256 9.10505 12.6481 9.0454C13.4067 8.93 14.5394 9.06672 15.8864 10.3061C16.1003 10.503 16.4333 10.4891 16.6301 10.2752C16.8269 10.0613 16.8131 9.72832 16.5992 9.53149C15.452 8.47595 14.3682 8.05837 13.4405 7.97576C14.1868 7.49466 14.9566 7.15307 15.801 7.07594C17.3562 6.93389 19.3451 7.69178 22.0414 10.7494C21.1327 11.4906 19.7469 12.4853 18.1721 12.7986C17.3841 12.9554 16.5545 12.9401 15.709 12.639C14.8628 12.3375 13.968 11.7379 13.0688 10.6759C12.8809 10.4541 12.5488 10.4265 12.327 10.6144C12.1051 10.8022 12.0776 11.1343 12.2654 11.3562C13.263 12.5343 14.3056 13.2565 15.3558 13.6306C16.4067 14.0049 17.4324 14.019 18.3775 13.831C20.246 13.4593 21.8196 12.2925 22.7476 11.5317L22.7477 11.5317L22.7519 11.5282C22.8554 11.4415 22.9404 11.335 23.002 11.2149C23.0635 11.0948 23.1004 10.9635 23.1103 10.8289C23.1203 10.6943 23.1031 10.5591 23.0599 10.4313ZM19.9983 25.6586C19.877 25.7157 19.7456 25.7481 19.6116 25.7538C19.4768 25.7595 19.3422 25.7382 19.2157 25.691C19.0893 25.6438 18.9736 25.5717 18.8755 25.479C18.7774 25.3863 18.6989 25.2749 18.6446 25.1513L18.6424 25.1462L18.6424 25.1462C18.1716 24.0425 17.4914 22.2053 17.6572 20.3074C17.741 19.3475 18.0414 18.3666 18.6948 17.4623C19.3476 16.5588 20.3326 15.7598 21.7427 15.1315C22.0082 15.0132 22.3194 15.1325 22.4377 15.398C22.556 15.6635 22.4367 15.9747 22.1711 16.093C20.9 16.6594 20.0741 17.3507 19.548 18.0788C19.0224 18.8063 18.7757 19.5985 18.7058 20.3989C18.5661 21.9986 19.1336 23.6072 19.591 24.687C23.2808 22.9535 24.5647 21.2559 24.8633 19.723C25.0254 18.8907 24.9127 18.056 24.6595 17.2048C24.3208 18.0725 23.6167 18.9963 22.2822 19.8026C22.0335 19.953 21.7099 19.8731 21.5596 19.6243C21.4093 19.3755 21.4891 19.052 21.7379 18.9017C23.3046 17.9551 23.7526 16.9058 23.854 16.1452C23.9064 15.752 23.8691 15.4128 23.819 15.1733C23.794 15.054 23.7662 14.9611 23.7459 14.9008C23.7358 14.8708 23.7276 14.849 23.7226 14.8365L23.7178 14.8246L23.7127 14.8126L22.9197 13.0327C22.8014 12.7671 22.9207 12.456 23.1862 12.3377C23.4517 12.2194 23.7629 12.3387 23.8812 12.6043L24.6807 14.3986L24.7122 14.4693C25.433 16.0865 26.2758 17.9773 25.8965 19.9243C25.5015 21.952 23.8373 23.863 19.9983 25.6586ZM7.67957 13.1261C7.73994 13.0064 7.82355 12.8999 7.92554 12.8129C8.02821 12.7253 8.1474 12.6592 8.27607 12.6184C8.40473 12.5777 8.54026 12.5632 8.67464 12.5758C8.80901 12.5884 8.93949 12.6278 9.05836 12.6917L9.06326 12.6943L9.06325 12.6944C10.1141 13.2737 11.7817 14.3018 12.8204 15.8989C13.3457 16.7067 13.7133 17.6644 13.7558 18.7792C13.7982 19.8932 13.5146 21.1293 12.7909 22.493C12.6546 22.7497 12.336 22.8474 12.0792 22.7111C11.8224 22.5749 11.7248 22.2563 11.861 21.9995C12.5134 20.7703 12.7381 19.7169 12.7039 18.8192C12.6697 17.9224 12.376 17.1464 11.9379 16.4729C11.0625 15.1268 9.62447 14.2092 8.59899 13.6405C6.7605 17.2791 6.79497 19.4073 7.50411 20.7986C7.88914 21.5541 8.49208 22.1421 9.21585 22.6566C8.94825 21.7645 8.93376 20.6031 9.4881 19.1462C9.59146 18.8745 9.8955 18.7381 10.1672 18.8414C10.4389 18.9448 10.5753 19.2488 10.4719 19.5205C9.82103 21.2313 10.1145 22.3339 10.5032 22.9955C10.7042 23.3374 10.9426 23.5817 11.1296 23.7394C11.2227 23.8181 11.3018 23.8741 11.355 23.909C11.3815 23.9265 11.4013 23.9385 11.413 23.9454L11.4215 23.9503L11.4217 23.9504L13.1568 24.8712C13.4135 25.0075 13.5112 25.3261 13.3749 25.5829C13.2387 25.8396 12.9201 25.9373 12.6633 25.8011L10.937 24.8849C10.934 24.8834 10.9311 24.8818 10.9281 24.8803L10.9282 24.8802L10.9281 24.8802L10.9276 24.8799C10.9275 24.88 10.9275 24.88 10.9275 24.8799L10.9268 24.8796L10.9252 24.8787L10.9213 24.8766L10.9187 24.8752L10.8598 24.8439C9.29563 24.0141 7.46694 23.0439 6.56623 21.2766C5.62817 19.4361 5.76186 16.9055 7.67957 13.1261Z" fill="#A2B38B"/>
<path d="M16 31C7.71573 31 1 24.2843 1 16H-1C-1 25.3888 6.61116 33 16 33V31ZM31 16C31 24.2843 24.2843 31 16 31V33C25.3888 33 33 25.3888 33 16H31ZM16 1C24.2843 1 31 7.71573 31 16H33C33 6.61116 25.3888 -1 16 -1V1ZM16 -1C6.61116 -1 -1 6.61116 -1 16H1C1 7.71573 7.71573 1 16 1V-1Z" fill="#384F08" fill-opacity="0.1"/>
</svg>
