<svg width="32" height="32" viewBox="0 0 32 32" fill="none" xmlns="http://www.w3.org/2000/svg">
<path d="M0 16C0 7.16344 7.16344 0 16 0C24.8366 0 32 7.16344 32 16C32 24.8366 24.8366 32 16 32C7.16344 32 0 24.8366 0 16Z" fill="#EAECDB"/>
<path d="M15.32 9.42493L15.0904 8.98078C14.8855 9.0867 14.7797 9.319 14.8342 9.54309C14.8887 9.76719 15.0894 9.92493 15.32 9.92493V9.42493ZM16.2052 9.21143V8.71143V9.21143ZM17.0905 9.42493L17.3202 8.98079L17.3201 8.98078L17.0905 9.42493ZM23.9419 12.9679L24.1718 12.5239L24.1715 12.5238L23.9419 12.9679ZM24.4105 13.7098L23.9105 13.7097V13.7098H24.4105ZM24.4105 20.6998L24.9105 20.6999V20.6998H24.4105ZM23.4724 22.1835L23.2427 21.7394L23.2426 21.7394L23.4724 22.1835ZM17.0905 25.4854L17.3201 25.9296L17.3203 25.9295L17.0905 25.4854ZM15.32 25.4854L15.0902 25.9295L15.0904 25.9296L15.32 25.4854ZM8.93813 22.1835L9.1679 21.7394L9.16777 21.7394L8.93813 22.1835ZM8 20.7006H7.5L7.5 20.701L8 20.7006ZM8 13.7098H8.5V13.7097L8 13.7098ZM8.46861 12.9679L8.23897 12.5238L8.23872 12.5239L8.46861 12.9679ZM15.3209 9.42493L15.5505 9.86907C15.7554 9.76315 15.8612 9.53085 15.8067 9.30676C15.7522 9.08267 15.5515 8.92493 15.3209 8.92493V9.42493ZM11.8729 14.8886C11.6276 15.0154 11.5316 15.3171 11.6585 15.5624C11.7853 15.8077 12.087 15.9037 12.3323 15.7768L11.8729 14.8886ZM20.5375 11.5327C20.7828 11.4058 20.8788 11.1042 20.7519 10.8589C20.6251 10.6136 20.3234 10.5176 20.0781 10.6445L20.5375 11.5327ZM10.9653 17.2893C10.7202 17.1621 10.4184 17.2577 10.2912 17.5029C10.164 17.748 10.2596 18.0498 10.5047 18.177L10.9653 17.2893ZM13.2398 19.5962C13.4849 19.7234 13.7867 19.6278 13.9139 19.3827C14.0411 19.1375 13.9455 18.8357 13.7004 18.7086L13.2398 19.5962ZM15.5496 9.86907C15.7483 9.76636 15.974 9.71143 16.2052 9.71143V8.71143C15.8169 8.71143 15.4333 8.80345 15.0904 8.98078L15.5496 9.86907ZM16.2052 9.71143C16.4364 9.71143 16.6622 9.76636 16.8609 9.86907L17.3201 8.98078C16.9772 8.80345 16.5936 8.71143 16.2052 8.71143V9.71143ZM16.8608 9.86906L23.7122 13.412L24.1715 12.5238L17.3202 8.98079L16.8608 9.86906ZM23.712 13.4119C23.7782 13.4462 23.8288 13.4939 23.8619 13.5465L24.7074 13.0124C24.5758 12.8041 24.3896 12.6367 24.1718 12.5239L23.712 13.4119ZM23.8619 13.5465C23.8949 13.5986 23.9105 13.6549 23.9105 13.7097L24.9105 13.7098C24.9105 13.462 24.8392 13.2211 24.7074 13.0124L23.8619 13.5465ZM23.9105 13.7098V20.6998H24.9105V13.7098H23.9105ZM23.9105 20.6997C23.9104 20.9059 23.8513 21.1108 23.7358 21.2934L24.5811 21.8278C24.7955 21.4887 24.9104 21.0991 24.9105 20.6999L23.9105 20.6997ZM23.7358 21.2934C23.6201 21.4764 23.4511 21.6316 23.2427 21.7394L23.702 22.6277C24.0621 22.4415 24.3668 22.1666 24.5811 21.8278L23.7358 21.2934ZM23.2426 21.7394L16.8607 25.0413L17.3203 25.9295L23.7021 22.6276L23.2426 21.7394ZM16.8609 25.0413C16.6622 25.144 16.4364 25.1989 16.2052 25.1989V26.1989C16.5936 26.1989 16.9772 26.1069 17.3201 25.9296L16.8609 25.0413ZM16.2052 25.1989C15.974 25.1989 15.7483 25.144 15.5496 25.0413L15.0904 25.9296C15.4333 26.1069 15.8169 26.1989 16.2052 26.1989V25.1989ZM15.5498 25.0413L9.1679 21.7394L8.70837 22.6276L15.0902 25.9295L15.5498 25.0413ZM9.16777 21.7394C8.95948 21.6317 8.79051 21.4765 8.67482 21.2936L7.82974 21.8283C8.04393 22.1668 8.34854 22.4416 8.70849 22.6277L9.16777 21.7394ZM8.67482 21.2936C8.55936 21.1111 8.50016 20.9064 8.5 20.7002L7.5 20.701C7.50032 21.1001 7.61532 21.4893 7.82974 21.8283L8.67482 21.2936ZM8.5 20.7006V13.7098H7.5V20.7006H8.5ZM8.5 13.7097C8.5 13.6549 8.5156 13.5986 8.54856 13.5465L7.7031 13.0124C7.57127 13.2211 7.49999 13.462 7.5 13.7098L8.5 13.7097ZM8.54856 13.5465C8.58173 13.4939 8.63228 13.4462 8.6985 13.4119L8.23872 12.5239C8.02085 12.6367 7.8347 12.8041 7.7031 13.0124L8.54856 13.5465ZM8.69825 13.412L15.5505 9.86907L15.0913 8.98078L8.23897 12.5238L8.69825 13.412ZM15.3209 8.92493H15.32V9.92493H15.3209V8.92493ZM7.77029 13.6548L15.9755 17.8989L16.435 17.0107L8.22971 12.7666L7.77029 13.6548ZM16.435 17.8989L24.6402 13.6548L24.1808 12.7666L15.9755 17.0107L16.435 17.8989ZM15.7052 17.4548V25.943H16.7052V17.4548H15.7052ZM12.3323 15.7768L20.5375 11.5327L20.0781 10.6445L11.8729 14.8886L12.3323 15.7768ZM10.5047 18.177L13.2398 19.5962L13.7004 18.7086L10.9653 17.2893L10.5047 18.177Z" fill="#A2B38B"/>
<path d="M16.5686 9.06459L19.5493 5.52878C19.5749 5.5117 19.61 5.49972 19.6504 5.5C19.6995 5.50035 19.7402 5.51869 19.7655 5.54178C19.7897 5.56386 19.7964 5.58618 19.7968 5.60136C19.7972 5.6164 19.7919 5.63784 19.7703 5.65985L19.7583 5.67198L19.7472 5.68489L16.3178 9.67806C16.3071 9.68696 16.2939 9.6953 16.2779 9.70195L16.4701 10.1635L16.2779 9.70195C16.2573 9.71054 16.2337 9.71563 16.209 9.71606C16.1842 9.71648 16.1603 9.71221 16.1391 9.70421C16.1178 9.69624 16.1008 9.6852 16.0883 9.67349L16.0882 9.67346L13.8029 7.5457L13.7964 7.53972L13.7898 7.53397C13.7765 7.52241 13.7681 7.51047 13.7631 7.50003C13.7581 7.48971 13.7562 7.48013 13.756 7.47157C13.7558 7.46302 13.7574 7.45362 13.7618 7.44353C13.7663 7.43332 13.7739 7.42152 13.7864 7.40989C13.799 7.39819 13.8159 7.38717 13.8372 7.37919C13.8584 7.37121 13.8823 7.36692 13.907 7.36732C13.9317 7.36773 13.9552 7.37279 13.9758 7.38135C13.9964 7.38988 14.0125 7.40122 14.0243 7.41295L14.0306 7.41923L14.0371 7.42528L15.8457 9.10836L16.2301 9.46611L16.5686 9.06459Z" fill="#A2B38B" stroke="#A2B38B"/>
<path d="M16 31C7.71573 31 1 24.2843 1 16H-1C-1 25.3888 6.61116 33 16 33V31ZM31 16C31 24.2843 24.2843 31 16 31V33C25.3888 33 33 25.3888 33 16H31ZM16 1C24.2843 1 31 7.71573 31 16H33C33 6.61116 25.3888 -1 16 -1V1ZM16 -1C6.61116 -1 -1 6.61116 -1 16H1C1 7.71573 7.71573 1 16 1V-1Z" fill="#384F08" fill-opacity="0.1"/>
</svg>
