<svg width="32" height="32" viewBox="0 0 32 32" fill="none" xmlns="http://www.w3.org/2000/svg">
<path d="M0 16C0 7.16344 7.16344 0 16 0C24.8366 0 32 7.16344 32 16C32 24.8366 24.8366 32 16 32C7.16344 32 0 24.8366 0 16Z" fill="#EAECDB"/>
<path d="M16 6C13.8783 6 11.8434 6.84285 10.3431 8.34315C8.84285 9.84344 8 11.8783 8 14C8 15.892 8.402 17.13 9.5 18.5L16 26L22.5 18.5C23.598 17.13 24 15.892 24 14C24 11.8783 23.1571 9.84344 21.6569 8.34315C20.1566 6.84285 18.1217 6 16 6Z" stroke="#A2B38B" stroke-width="1.0998" stroke-linecap="round" stroke-linejoin="round"/>
<path d="M15.5544 9.32697C15.7125 9.23918 15.8903 9.19312 16.0711 9.19312C16.252 9.19312 16.4298 9.23918 16.5879 9.32697L20.587 11.5482C20.6699 11.5943 20.739 11.6617 20.787 11.7435C20.8351 11.8252 20.8605 11.9184 20.8605 12.0133V16.3955C20.8604 16.5853 20.8097 16.7716 20.7134 16.9352C20.6171 17.0987 20.4788 17.2336 20.3129 17.3257L16.5879 19.3958C16.4298 19.4836 16.252 19.5296 16.0711 19.5296C15.8903 19.5296 15.7125 19.4836 15.5544 19.3958L11.8294 17.3257C11.6635 17.2336 11.5253 17.0989 11.4291 16.9354C11.3328 16.772 11.2819 16.5857 11.2818 16.396V12.0133C11.2818 11.9184 11.3072 11.8252 11.3552 11.7435C11.4033 11.6617 11.4724 11.5943 11.5553 11.5482L15.555 9.32697H15.5544Z" stroke="#A2B38B" stroke-width="1.0998" stroke-linecap="round" stroke-linejoin="round"/>
<path d="M16.0711 14.3614V19.6829M11.2818 11.7007L16.0711 14.3614L11.2818 11.7007ZM16.0711 14.3614L20.8605 11.7007L16.0711 14.3614Z" stroke="#A2B38B" stroke-width="1.0998" stroke-linejoin="round"/>
<path d="M12.8781 14.5355L14.4745 15.4253M13.6763 13.0306L18.4656 10.3699L13.6763 13.0306Z" stroke="#A2B38B" stroke-width="1.0998" stroke-linecap="round" stroke-linejoin="round"/>
<path d="M16 31C7.71573 31 1 24.2843 1 16H-1C-1 25.3888 6.61116 33 16 33V31ZM31 16C31 24.2843 24.2843 31 16 31V33C25.3888 33 33 25.3888 33 16H31ZM16 1C24.2843 1 31 7.71573 31 16H33C33 6.61116 25.3888 -1 16 -1V1ZM16 -1C6.61116 -1 -1 6.61116 -1 16H1C1 7.71573 7.71573 1 16 1V-1Z" fill="#384F08" fill-opacity="0.1"/>
</svg>
