<svg width="32" height="32" viewBox="0 0 32 32" fill="none" xmlns="http://www.w3.org/2000/svg">
<circle cx="16" cy="16" r="16" fill="#EAECDB"/>
<circle cx="16" cy="16" r="15.5" stroke="#384F08" stroke-opacity="0.1"/>
<path d="M8.91113 14.6333C9.03335 14.6944 9.09446 14.6944 9.21669 14.6944C9.33891 14.6944 9.46113 14.6333 9.52224 14.6333L13.8 12.1278C13.9834 12.0056 14.1056 11.8222 14.1056 11.5778C14.1056 11.3333 13.9834 11.15 13.8 11.0278L12.2722 10.1111L13.5556 7.78889C13.8 7.36111 14.1667 6.99444 14.5945 6.75C15.8167 6.07778 17.3445 6.56667 18.0167 7.78889C18.2 8.09444 18.5667 8.15556 18.8722 7.97222H18.9334C19.1778 7.78889 19.2389 7.42222 19.1167 7.17778C18.75 6.56667 18.2611 6.01667 17.65 5.71111C15.8167 4.73333 13.5556 5.34444 12.5778 7.17778L10.8667 10.05C10.6834 10.3556 10.8056 10.7222 11.05 10.9056L12.2722 11.6389L9.8278 13.1056V9.01111C9.8278 8.64444 9.58335 8.4 9.21669 8.4C8.91113 8.46111 8.66669 8.70556 8.66669 9.07222V14.1444C8.66669 14.3278 8.78891 14.5111 8.91113 14.6333V14.6333Z" fill="#A2B38B"/>
<path d="M24.6167 16.8334L22.4778 13.0445C22.4167 12.9223 22.2333 12.8001 22.1111 12.739C21.9278 12.6779 21.8055 12.739 21.6222 12.8001L20.2778 13.5945V10.7223L23.6389 12.739C23.7 12.739 23.7 12.8001 23.7611 12.8001C24.0667 12.9223 24.4333 12.8001 24.5555 12.4945C24.6778 12.189 24.5555 11.8223 24.25 11.7001L19.9722 9.13341C19.7889 9.01119 19.5444 9.01119 19.3611 9.13341C19.1167 9.19453 19.0555 9.37786 19.0555 9.6223V14.6945C19.0555 14.939 19.1167 15.1834 19.3 15.3056C19.4833 15.4279 19.7278 15.4279 19.9111 15.3056L21.6833 14.2667L23.5167 17.5056C23.9444 18.3001 23.9444 19.2167 23.5167 20.0112C23.15 20.7445 22.3555 21.1723 21.5611 21.1723H21.0111C20.7055 21.1723 20.2778 21.4167 20.2778 21.7834C20.3389 22.1501 20.6444 22.3945 21.0111 22.3945H21.5611C22.8444 22.3945 24.0055 21.7223 24.6167 20.6223C25.2889 19.4001 25.2889 17.9945 24.6167 16.8334V16.8334Z" fill="#A2B38B"/>
<path d="M18.6889 21.2333L14.4111 18.6666C14.2278 18.5444 13.9833 18.5444 13.8 18.6666C13.6167 18.7889 13.5556 18.9722 13.5556 19.2166V21.2333H10.5611C9.64445 21.1722 8.7889 20.6833 8.36112 19.8278C7.87223 18.9722 7.87223 17.8722 8.36112 17.0166C8.54445 16.7111 8.42223 16.3444 8.11668 16.1611C7.81112 15.9778 7.44445 16.1 7.26112 16.4055C6.52779 17.6889 6.5889 19.2166 7.32223 20.4389C7.99445 21.6 9.27779 22.3333 10.6222 22.3333H14.1667C14.5333 22.3333 14.7778 22.0889 14.7778 21.7222V20.2555L17.2222 21.7222L13.8 23.7389C13.6167 23.8611 13.4945 24.0444 13.4945 24.2889C13.4945 24.6555 13.8 24.9 14.1056 24.9C14.2278 24.9 14.2889 24.8389 14.4111 24.7778L18.6889 22.2111C18.8111 22.15 18.8722 22.0889 18.9333 21.9666C19.1167 21.7222 18.9945 21.3555 18.6889 21.2333V21.2333Z" fill="#A2B38B"/>
</svg>
