<svg width="32" height="32" viewBox="0 0 32 32" fill="none" xmlns="http://www.w3.org/2000/svg">
<path d="M0 16C0 7.16344 7.16344 0 16 0C24.8366 0 32 7.16344 32 16C32 24.8366 24.8366 32 16 32C7.16344 32 0 24.8366 0 16Z" fill="#EAECDB"/>
<path d="M23.9466 22.7024L20.873 21.6523L20.3636 21.4782L20.188 21.9872L19.1205 25.0814L16.3946 19.7713L15.9013 18.8103L15.4286 19.7816L12.867 25.0452L11.812 21.9872L11.6364 21.4782L11.127 21.6523L8.05342 22.7024L10.6179 17.433L10.7674 17.1257L10.5538 16.8591C9.56544 15.6252 9.02822 14.0908 9.03106 12.5099V12.5089C9.03106 10.6607 9.76529 8.88808 11.0722 7.58116C12.3791 6.27423 14.1517 5.54 16 5.54C17.8483 5.54 19.6209 6.27423 20.9278 7.58116C22.2347 8.88808 22.9689 10.6607 22.9689 12.5089C22.9689 14.1524 22.4017 15.6648 21.446 16.8593L21.2327 17.126L21.3821 17.433L23.9466 22.7024ZM11.0061 12.0569L10.3112 12.5111L11.0081 12.9622L12.982 14.2401V16.5V17.3355L13.7438 16.9924L16.0005 15.9758L18.2677 16.9927L19.0252 17.3325L19.0287 16.5023L19.0382 14.2393L20.9939 12.9609L21.6845 12.5095L20.9944 12.0573L19.0287 10.769V8.5V7.66379L18.2665 8.00782L16.0005 9.03068L13.745 8.00818L12.989 7.66544L12.9821 8.4955L12.963 10.7778L11.0061 12.0569Z" stroke="#A2B38B" stroke-width="1.08"/>
<path d="M16 31C7.71573 31 1 24.2843 1 16H-1C-1 25.3888 6.61116 33 16 33V31ZM31 16C31 24.2843 24.2843 31 16 31V33C25.3888 33 33 25.3888 33 16H31ZM16 1C24.2843 1 31 7.71573 31 16H33C33 6.61116 25.3888 -1 16 -1V1ZM16 -1C6.61116 -1 -1 6.61116 -1 16H1C1 7.71573 7.71573 1 16 1V-1Z" fill="#384F08" fill-opacity="0.1"/>
</svg>
