<svg width="32" height="32" viewBox="0 0 32 32" fill="none" xmlns="http://www.w3.org/2000/svg">
<path d="M0 16C0 7.16344 7.16344 0 16 0C24.8366 0 32 7.16344 32 16C32 24.8366 24.8366 32 16 32C7.16344 32 0 24.8366 0 16Z" fill="#EAECDB"/>
<path fill-rule="evenodd" clip-rule="evenodd" d="M21.0517 12.7199C21.147 12.5148 21.2 12.2859 21.2 12.0443C21.2 11.4227 20.8055 10.857 20.2756 10.594L19.3034 10.1358C18.8652 9.93138 18.387 9.825 17.9049 9.825H14.2951C13.813 9.825 13.334 9.93138 12.8966 10.1358L11.924 10.594C11.3602 10.857 11 11.4227 11 12.0443C11 12.2856 11.0531 12.5142 11.1482 12.7191C11.2792 13.0015 11.49 13.239 11.7519 13.403C11.5066 13.5912 11.308 13.8368 11.1766 14.1145C11.0633 14.3542 11 14.6178 11 14.8891C11 15.2329 11.0816 15.5489 11.2255 15.8179C11.3751 16.0976 11.5922 16.3265 11.855 16.4829C11.6019 16.6688 11.3911 16.9046 11.2422 17.1711C11.0879 17.4472 11 17.7563 11 18.0766C11 18.4284 11.0854 18.7511 11.2356 19.0286C11.3849 19.3043 11.5981 19.5355 11.855 19.7063C11.5971 19.8777 11.3832 20.11 11.2339 20.3826C11.0848 20.6549 11 20.9675 11 21.3C11 21.6325 11.0848 21.9451 11.2339 22.2174C11.3832 22.4901 11.5971 22.7223 11.855 22.8938C11.5971 23.0652 11.3832 23.2975 11.2339 23.5701C11.0848 23.8424 11 24.155 11 24.4875C11 25.5434 11.8562 26.4 12.9125 26.4H19.2875C20.3434 26.4 21.2 25.5434 21.2 24.4875C21.2 24.1547 21.1153 23.8419 20.9658 23.5694C20.8164 23.2971 20.6023 23.065 20.3434 22.8938C20.6023 22.7225 20.8164 22.4905 20.9658 22.2181C21.1153 21.9456 21.2 21.6328 21.2 21.3C21.2 20.9672 21.1153 20.6544 20.9658 20.3819C20.8164 20.1096 20.6023 19.8775 20.3434 19.7063C20.6013 19.5356 20.8147 19.3047 20.9641 19.0293C21.1146 18.7517 21.2 18.4287 21.2 18.0766C21.2 17.756 21.1122 17.4468 20.9575 17.1705C20.8085 16.9042 20.5975 16.6686 20.3434 16.4829C20.6072 16.3266 20.8245 16.098 20.9742 15.8187C21.1185 15.5495 21.2 15.2332 21.2 14.8891C21.2 14.6177 21.1367 14.3539 21.0231 14.1141C20.8916 13.8365 20.6928 13.5911 20.447 13.403C20.7099 13.2392 20.9208 13.002 21.0517 12.7199ZM13.2834 10.9603L13.2821 10.9609L12.3089 11.4193C12.0659 11.5327 11.9107 11.7766 11.9107 12.0443C11.9107 12.2922 12.0388 12.5081 12.2351 12.6311L13.3469 13.3271L12.3062 14.1255C12.0556 14.3178 11.9107 14.6088 11.9107 14.8891C11.9107 15.2915 12.0996 15.5687 12.3208 15.7003L12.6636 15.9043C12.9056 14.6334 13.7012 13.1785 15.2555 11.4511C15.3304 11.3675 15.4212 11.2996 15.5226 11.2515C15.6246 11.203 15.7354 11.1755 15.8483 11.1706C15.9612 11.1657 16.0739 11.1835 16.1798 11.223C16.2857 11.2624 16.3826 11.3227 16.4648 11.4002L16.4683 11.4036L16.4683 11.4036C17.166 12.076 18.2542 13.2315 18.7308 14.7015C18.8863 15.1814 18.9774 15.6966 18.9681 16.239L19.8792 15.6993C20.101 15.568 20.2893 15.2919 20.2893 14.8891C20.2893 14.609 20.1446 14.3183 19.8935 14.1262L18.8478 13.326L19.9655 12.6299C20.1618 12.5077 20.2893 12.293 20.2893 12.0443C20.2893 11.8047 20.1253 11.5393 19.8774 11.4131L18.9185 10.9612L18.917 10.9605C18.5991 10.8124 18.2528 10.7357 17.9049 10.7357H14.2951C13.9468 10.7357 13.5999 10.8126 13.2834 10.9603ZM12.6702 17.5945C12.634 17.423 12.6085 17.2482 12.5945 17.0698L12.394 17.217C12.0752 17.4511 11.9107 17.78 11.9107 18.0766C11.9107 18.4696 12.0948 18.7721 12.3591 18.9478L13.5004 19.7063L12.3591 20.4647C12.0868 20.6457 11.9107 20.9522 11.9107 21.3C11.9107 21.6478 12.0868 21.9543 12.3591 22.1353L13.5004 22.8938L12.3591 23.6522C12.0868 23.8332 11.9107 24.1397 11.9107 24.4875C11.9107 25.0405 12.3593 25.4893 12.9125 25.4893H19.2875C19.8404 25.4893 20.2893 25.0404 20.2893 24.4875C20.2893 24.1394 20.1138 23.8338 19.8409 23.6533L18.6927 22.8938L19.8409 22.1342C20.1138 21.9537 20.2893 21.6482 20.2893 21.3C20.2893 20.9518 20.1138 20.6463 19.8409 20.4658L18.6927 19.7063L19.8409 18.9467C20.1058 18.7714 20.2893 18.47 20.2893 18.0766C20.2893 17.7797 20.1254 17.4516 19.806 17.2182L18.9481 16.5912C18.9299 16.7774 18.8996 16.9665 18.8557 17.1582C18.6536 18.0412 18.1701 18.9494 17.317 19.8632C17.1454 20.047 16.8572 20.0569 16.6734 19.8853C16.4896 19.7137 16.4797 19.4255 16.6513 19.2417C17.4145 18.4242 17.8076 17.6553 17.968 16.9549C18.1282 16.2552 18.0629 15.5946 17.8644 14.9824C17.4718 13.7711 16.5649 12.7678 15.8882 12.1096C13.7133 14.5427 13.3046 16.1914 13.5612 17.4062C13.6956 18.0424 14.0169 18.602 14.443 19.1317C14.4417 18.3913 14.6861 17.508 15.3991 16.5233C15.5466 16.3196 15.8313 16.2741 16.035 16.4216C16.2387 16.5691 16.2842 16.8538 16.1367 17.0575C15.2756 18.2467 15.2751 19.1578 15.4365 19.7453C15.5201 20.0499 15.6529 20.2871 15.7639 20.447C15.8192 20.5267 15.8683 20.5861 15.9017 20.6236C15.9183 20.6424 15.9309 20.6556 15.9382 20.663L15.945 20.6698L15.9443 20.6692M15.9518 20.6763L17.1014 21.7496C17.2852 21.9212 17.2951 22.2094 17.1235 22.3932C16.9519 22.577 16.6637 22.5869 16.4799 22.4153L15.3213 21.3336L15.2729 21.2884C14.2304 20.3155 13.003 19.17 12.6702 17.5945M15.9518 20.6763C15.9491 20.6737 15.9464 20.6711 15.9437 20.6686C15.9437 20.6685 15.9436 20.6685 15.9435 20.6684L15.9437 20.6686L15.9437 20.6686M17.7393 6.95625C17.7393 6.93006 17.7195 6.91071 17.6938 6.91071H14.5063C14.4805 6.91071 14.4607 6.93006 14.4607 6.95625V7.63929H17.7393V6.95625ZM17.6938 6C18.2237 6 18.65 6.42832 18.65 6.95625V8.55H13.55V6.95625C13.55 6.42832 13.9763 6 14.5063 6H17.6938Z" fill="#A2B38B"/>
<path d="M16 31C7.71573 31 1 24.2843 1 16H-1C-1 25.3888 6.61116 33 16 33V31ZM31 16C31 24.2843 24.2843 31 16 31V33C25.3888 33 33 25.3888 33 16H31ZM16 1C24.2843 1 31 7.71573 31 16H33C33 6.61116 25.3888 -1 16 -1V1ZM16 -1C6.61116 -1 -1 6.61116 -1 16H1C1 7.71573 7.71573 1 16 1V-1Z" fill="#384F08" fill-opacity="0.1"/>
</svg>
